<svg id="visual" viewBox="0 0 900 600" width="900" height="600" xmlns="http://www.w3.org/2000/svg" xmlns:xlink="http://www.w3.org/1999/xlink" version="1.1"><rect x="0" y="0" width="900" height="600" fill="#077003"></rect><path d="M0 422L21.5 422.8C43 423.7 86 425.3 128.8 426C171.7 426.7 214.3 426.3 257.2 440.5C300 454.7 343 483.3 385.8 495.7C428.7 508 471.3 504 514.2 487.5C557 471 600 442 642.8 430.7C685.7 419.3 728.3 425.7 771.2 427.8C814 430 857 428 878.5 427L900 426L900 601L878.5 601C857 601 814 601 771.2 601C728.3 601 685.7 601 642.8 601C600 601 557 601 514.2 601C471.3 601 428.7 601 385.8 601C343 601 300 601 257.2 601C214.3 601 171.7 601 128.8 601C86 601 43 601 21.5 601L0 601Z" fill="#f7cb0f" stroke-linecap="round" stroke-linejoin="miter"></path></svg>